# xmcd
#
# Track frame offsets:
#	150
#	15838
#	35929
#	50057
#	72519
#	86162
#	106737
#	123994
#	140670
#	157947
#	174462
#
# Disc length: 2538 seconds
#
# Revision: 3
# Processed by: cddbd v1.5.2PL0 Copyright (c) Steve Scherf et al.
# Submitted via: EZCDAudioConverter 9.0.2.1
#
DISCID=9309e80b
DTITLE=Josh Turner - Icon 2 
DYEAR=2014
DGENRE=Country
TTITLE0=Firecracker
TTITLE1=As Fast As I Could
TTITLE2=Lord Have Mercy On A Country Boy
TTITLE3=The Longer The Wait The Sweeter The Kiss
TTITLE4=Angels Fall Sometimes
TTITLE5=Pallbearer
TTITLE6=Would You Go With Me
TTITLE7=Backwoods Boy
TTITLE8=Soulmate
TTITLE9=I'll Be There
TTITLE10=Your Man
EXTD=
EXTT0=
EXTT1=
EXTT2=
EXTT3=
EXTT4=
EXTT5=
EXTT6=
EXTT7=
EXTT8=
EXTT9=
EXTT10=
PLAYORDER=
